<svg width="26" height="26" viewBox="0 0 26 26" fill="none" xmlns="http://www.w3.org/2000/svg"><g clip-path="url(#clip0_198_1886)"><path d="M25.921 12.96C25.921 5.802 20.12 0 12.961 0 5.8 0 0 5.802 0 12.96c0 7.16 5.802 12.961 12.96 12.961.076 0 .152 0 .228-.005V15.831h-2.784v-3.245h2.784v-2.39c0-2.769 1.691-4.278 4.162-4.278 1.185 0 2.202.086 2.496.127V8.94h-1.701c-1.342 0-1.605.638-1.605 1.574v2.066h3.215l-.42 3.245H16.54v9.594c5.417-1.554 9.381-6.541 9.381-12.46z" fill="#2591FF"/></g><defs><clipPath id="clip0_198_1886"><path fill="#fff" d="M0 0h25.921v25.921H0z"/></clipPath></defs></svg>