<svg width="26" height="26" viewBox="0 0 26 26" fill="none" xmlns="http://www.w3.org/2000/svg"><g clip-path="url(#clip0_198_1888)"><path d="M12.96 25.921c7.16 0 12.961-5.8 12.961-12.96C25.921 5.8 20.121 0 12.961 0 5.8 0 0 5.8 0 12.96c0 7.16 5.8 12.961 12.96 12.961zM5.93 12.68l12.497-4.818c.58-.21 1.086.141.898 1.018l.001-.001L17.2 18.903c-.158.71-.58.883-1.171.549l-3.24-2.388-1.563 1.505c-.173.173-.319.319-.653.319l.23-3.298 6.005-5.425c.26-.23-.059-.36-.403-.13l-7.421 4.672-3.2-.998c-.694-.22-.709-.694.148-1.03z" fill="#2591FF"/></g><defs><clipPath id="clip0_198_1888"><path fill="#fff" d="M0 0h25.921v25.921H0z"/></clipPath></defs></svg>