<svg width="26" height="26" viewBox="0 0 26 26" fill="none" xmlns="http://www.w3.org/2000/svg"><circle cx="12.96" cy="12.96" r="12.96" fill="#2591FF"/><g clip-path="url(#clip0_198_1890)" fill="#fff"><path d="M20.189 14.187c.464-3.906-.223-6.371-1.462-7.487-2-1.905-8.753-2.187-11.145.085-1.075 1.112-1.453 2.743-1.495 4.762-.041 2.02-.09 5.804 3.436 6.83h.003l-.003 1.568s-.024.635.381.762c.464.15.674-.144 2.117-1.868 2.414.21 4.267-.27 4.477-.34.488-.163 3.245-.528 3.691-4.312zm-7.93 3.55s-1.527 1.904-2.002 2.398c-.156.161-.326.146-.324-.173l.012-2.602c-2.99-.857-2.813-4.079-2.78-5.764.032-1.687.34-3.068 1.25-3.997 2.099-1.968 8.02-1.528 9.529-.11 1.844 1.634 1.187 6.253 1.191 6.411-.379 3.158-2.613 3.359-3.024 3.495-.176.059-1.805.478-3.852.341z"/><path d="M13.103 7.969c-.25 0-.25.388 0 .392 1.936.015 3.53 1.364 3.547 3.838 0 .262.383.258.38-.003h-.001c-.02-2.666-1.761-4.213-3.926-4.227z"/><path d="M15.65 11.79c-.006.257.376.27.38.008.03-1.47-.876-2.681-2.58-2.809-.249-.018-.275.374-.026.392 1.478.112 2.256 1.12 2.226 2.408zm-.408 1.672c-.32-.185-.646-.07-.78.112l-.283.365c-.143.185-.41.16-.41.16-1.954-.516-2.476-2.56-2.476-2.56s-.024-.277.155-.425l.352-.292c.177-.14.288-.476.108-.808-.479-.866-.801-1.165-.965-1.394-.172-.216-.432-.265-.701-.119h-.006c-.56.328-1.174.942-.978 1.574.335.666.95 2.79 2.913 4.394.922.759 2.382 1.536 3.001 1.716l.006.009c.61.203 1.204-.434 1.52-1.012v-.004c.141-.28.095-.544-.11-.717-.365-.355-.914-.747-1.346-1z"/><path d="M13.717 10.436c.623.036.925.361.957 1.03.012.26.391.243.38-.019-.042-.872-.497-1.358-1.316-1.403-.25-.015-.273.377-.02.392z"/></g><defs><clipPath id="clip0_198_1890"><path fill="#fff" transform="translate(5.184 5.184)" d="M0 0h15.553v15.553H0z"/></clipPath></defs></svg>