<svg width="26" height="26" viewBox="0 0 26 26" fill="none" xmlns="http://www.w3.org/2000/svg"><circle cx="12.96" cy="12.96" r="12.96" fill="#2591FF"/><path fill-rule="evenodd" clip-rule="evenodd" d="M18.431 7.467a7.613 7.613 0 00-5.42-2.247c-4.224 0-7.662 3.437-7.664 7.662 0 1.35.353 2.67 1.023 3.831l-1.087 3.971 4.062-1.065a7.66 7.66 0 003.662.932h.004c4.223 0 7.66-3.438 7.663-7.663a7.616 7.616 0 00-2.243-5.42zm-5.42 11.79h-.003a6.36 6.36 0 01-3.242-.888l-.232-.138-2.41.633.643-2.35-.152-.242a6.353 6.353 0 01-.974-3.39 6.378 6.378 0 016.372-6.368c1.701 0 3.3.664 4.503 1.868a6.332 6.332 0 011.864 4.506 6.378 6.378 0 01-6.37 6.37zm3.493-4.77c-.191-.096-1.133-.559-1.308-.623-.176-.064-.303-.096-.43.096-.129.191-.495.623-.607.75-.112.128-.224.144-.415.048-.192-.095-.809-.298-1.54-.95a5.776 5.776 0 01-1.065-1.326c-.112-.192-.001-.286.084-.39.207-.258.415-.528.479-.656.063-.128.031-.24-.017-.335-.047-.096-.43-1.039-.59-1.422-.155-.373-.313-.323-.43-.329a7.653 7.653 0 00-.367-.006.703.703 0 00-.511.24c-.176.19-.67.654-.67 1.597 0 .942.686 1.852.782 1.98.095.128 1.35 2.062 3.27 2.891.457.198.814.315 1.092.404a2.64 2.64 0 001.206.076c.368-.055 1.133-.464 1.292-.91.16-.448.16-.832.112-.911-.048-.08-.175-.128-.367-.224z" fill="#fff"/></svg>