<svg width="16" height="16" viewBox="0 0 16 16" fill="none" xmlns="http://www.w3.org/2000/svg"><path d="M14.667 6.667v2c0 2.667-1.333 4-4 4h-.333c-.207 0-.407.1-.534.267l-1 1.333c-.44.587-1.16.587-1.6 0l-1-1.333a.753.753 0 00-.533-.267h-.333c-2.667 0-4-.667-4-4V5.334c0-2.667 1.333-4 4-4h4" stroke="#2591FF" stroke-width="1.5" stroke-miterlimit="10" stroke-linecap="round" stroke-linejoin="round"/><path d="M13 4.667a1.667 1.667 0 100-3.333 1.667 1.667 0 000 3.333z" stroke="#2591FF" stroke-width="1.5" stroke-linecap="round" stroke-linejoin="round"/><path d="M10.664 7.333h.006m-2.673 0h.006m-2.673 0h.006" stroke="#2591FF" stroke-width="2" stroke-linecap="round" stroke-linejoin="round"/></svg>