<svg width="26" height="26" viewBox="0 0 26 26" fill="none" xmlns="http://www.w3.org/2000/svg">
<g clip-path="url(#clip0_198_1886)">
<path d="M25.9211 12.9605C25.9211 5.80186 20.1192 0 12.9605 0C5.80186 0 0 5.80186 0 12.9605C0 20.1192 5.80186 25.9211 12.9605 25.9211C13.0365 25.9211 13.1124 25.9211 13.1883 25.916V15.8311H10.4039V12.5859H13.1883V10.1963C13.1883 7.42699 14.8793 5.9183 17.3499 5.9183C18.5346 5.9183 19.5522 6.00437 19.8458 6.04487V8.94074H18.1447C16.8031 8.94074 16.5399 9.57864 16.5399 10.5152V12.5808H19.7547L19.3345 15.826H16.5399V25.4198C21.957 23.8656 25.9211 18.8788 25.9211 12.9605Z" fill="#2591FF"/>
</g>
<defs>
<clipPath id="clip0_198_1886">
<rect width="25.9211" height="25.9211" fill="white"/>
</clipPath>
</defs>
</svg>
