<svg width="26" height="26" viewBox="0 0 26 26" fill="none" xmlns="http://www.w3.org/2000/svg">
<g clip-path="url(#clip0_198_1888)">
<path d="M12.9605 25.9211C20.1201 25.9211 25.9211 20.1201 25.9211 12.9605C25.9211 5.80092 20.1201 0 12.9605 0C5.80092 0 0 5.80092 0 12.9605C0 20.1201 5.80092 25.9211 12.9605 25.9211ZM5.93052 12.6797L18.4266 7.86164C19.0066 7.65211 19.5132 8.00313 19.3252 8.88012L19.3263 8.87904L17.1986 18.9029C17.0409 19.6136 16.6186 19.7864 16.0279 19.4516L12.7877 17.0636L11.2249 18.5692C11.0521 18.742 10.9063 18.8878 10.5715 18.8878L10.8015 15.5904L16.8066 10.1654C17.0679 9.93532 16.7482 9.80572 16.4037 10.0347L8.98273 14.707L5.78364 13.709C5.08917 13.4887 5.07405 13.0145 5.93052 12.6797Z" fill="#2591FF"/>
</g>
<defs>
<clipPath id="clip0_198_1888">
<rect width="25.9211" height="25.9211" fill="white"/>
</clipPath>
</defs>
</svg>
