<svg width="26" height="26" viewBox="0 0 26 26" fill="none" xmlns="http://www.w3.org/2000/svg">
<circle cx="12.9605" cy="12.9605" r="12.9605" fill="#2591FF"/>
<g clip-path="url(#clip0_198_1890)">
<path d="M20.189 14.1871C20.653 10.2814 19.9661 7.81567 18.7271 6.70042L18.7277 6.69977C16.7279 4.79522 9.97419 4.51333 7.58167 6.78531C6.50725 7.89667 6.1288 9.52776 6.08732 11.547C6.04585 13.5669 5.9966 17.3507 9.52251 18.3772H9.52575L9.52251 19.9448C9.52251 19.9448 9.49853 20.5798 9.9042 20.7075C10.3682 20.8578 10.5781 20.563 12.0213 18.8392C14.4346 19.0486 16.2879 18.569 16.4985 18.499C16.9858 18.3357 19.7432 17.9709 20.189 14.1871ZM12.2591 17.7363C12.2591 17.7363 10.7317 19.6409 10.2567 20.1353C10.1012 20.296 9.93077 20.2811 9.93336 19.9623C9.93336 19.753 9.94503 17.3598 9.94503 17.3598C6.95568 16.5031 7.13194 13.2811 7.16434 11.5956C7.19675 9.90944 7.50521 8.5285 8.41504 7.59858C10.514 5.63053 16.435 6.07054 17.9436 7.48842C19.7879 9.12339 19.1314 13.7425 19.1353 13.9C18.7562 17.0585 16.5218 17.2587 16.111 17.3954C15.9354 17.4538 14.3056 17.873 12.2591 17.7363Z" fill="white"/>
<path d="M13.1031 7.96857C12.8536 7.96857 12.8536 8.35738 13.1031 8.36062C15.0388 8.37553 16.6329 9.72472 16.6504 12.1995C16.6504 12.4607 17.0328 12.4574 17.0295 12.1963H17.0289C17.0081 9.52966 15.2675 7.98347 13.1031 7.96857Z" fill="white"/>
<path d="M15.6501 11.7893C15.6442 12.0472 16.0259 12.0595 16.0292 11.7983C16.0609 10.328 15.1543 9.1168 13.4507 8.98914C13.2012 8.97099 13.1753 9.36305 13.4241 9.38119C14.9016 9.4933 15.6799 10.5016 15.6501 11.7893Z" fill="white"/>
<path d="M15.242 13.4619C14.9219 13.2765 14.5959 13.3919 14.4611 13.574L14.1792 13.9388C14.036 14.1242 13.7684 14.0995 13.7684 14.0995C11.8152 13.5831 11.2929 11.5392 11.2929 11.5392C11.2929 11.5392 11.2689 11.2625 11.4478 11.1141L11.8003 10.8225C11.9766 10.6825 12.088 10.3455 11.9085 10.0144C11.429 9.14797 11.1069 8.84923 10.943 8.61982C10.7706 8.40403 10.5114 8.35543 10.2418 8.50124H10.236C9.67544 8.82914 9.06176 9.44282 9.25811 10.0746C9.59314 10.7408 10.2088 12.8644 12.171 14.4689C13.0931 15.2277 14.5525 16.0054 15.172 16.1849L15.1778 16.194C15.7883 16.3974 16.3819 15.7598 16.6987 15.1824V15.1779C16.8394 14.8986 16.7927 14.6342 16.5873 14.4611C16.2231 14.106 15.6736 13.714 15.242 13.4619Z" fill="white"/>
<path d="M13.7171 10.4357C14.3399 10.472 14.6419 10.7973 14.6743 11.4655C14.6859 11.7266 15.065 11.7085 15.0534 11.4473C15.0119 10.5751 14.557 10.0891 13.7379 10.0437C13.4884 10.0288 13.4651 10.4208 13.7171 10.4357Z" fill="white"/>
</g>
<defs>
<clipPath id="clip0_198_1890">
<rect width="15.5526" height="15.5526" fill="white" transform="translate(5.18359 5.1842)"/>
</clipPath>
</defs>
</svg>
