<svg width="26" height="26" viewBox="0 0 26 26" fill="none" xmlns="http://www.w3.org/2000/svg">
<circle cx="12.9605" cy="12.9605" r="12.9605" fill="#2591FF"/>
<path fill-rule="evenodd" clip-rule="evenodd" d="M18.4311 7.46725C16.9844 6.0188 15.0603 5.22076 13.0105 5.21991C8.78673 5.21991 5.34918 8.65737 5.34748 12.8823C5.34691 14.2329 5.69973 15.5513 6.37035 16.7133L5.2832 20.6842L9.3455 19.6186C10.4648 20.2291 11.725 20.5509 13.0074 20.5513H13.0106C17.2339 20.5513 20.6719 17.1135 20.6735 12.8884C20.6743 10.8408 19.878 8.91561 18.4311 7.46725ZM13.0105 19.2571H13.0079C11.865 19.2567 10.7442 18.9495 9.76618 18.3693L9.53371 18.2313L7.12308 18.8637L7.76651 16.5133L7.61502 16.2724C6.97744 15.2583 6.64076 14.0862 6.64133 12.8828C6.64265 9.37112 9.49992 6.51414 13.0131 6.51414C14.7143 6.5147 16.3135 7.17805 17.516 8.38195C18.7184 9.58585 19.3803 11.1861 19.3797 12.888C19.3782 16.3999 16.5211 19.2571 13.0105 19.2571ZM16.5041 14.487C16.3127 14.3911 15.3713 13.928 15.1958 13.864C15.0204 13.8001 14.8926 13.7683 14.7651 13.9599C14.6374 14.1515 14.2705 14.5829 14.1587 14.7106C14.047 14.8384 13.9354 14.8544 13.7439 14.7585C13.5524 14.6627 12.9355 14.4604 12.2041 13.8081C11.6349 13.3004 11.2507 12.6734 11.1389 12.4818C11.0274 12.29 11.138 12.1964 11.2229 12.0911C11.4302 11.8337 11.6378 11.5638 11.7016 11.4361C11.7655 11.3083 11.7335 11.1965 11.6855 11.1007C11.6378 11.0049 11.2548 10.0624 11.0953 9.67891C10.9398 9.30571 10.7821 9.35611 10.6645 9.35026C10.5529 9.34469 10.4252 9.34356 10.2975 9.34356C10.1699 9.34356 9.96241 9.39141 9.78685 9.5832C9.61139 9.7749 9.1168 10.2381 9.1168 11.1805C9.1168 12.123 9.8029 13.0334 9.8986 13.1612C9.99431 13.289 11.2488 15.223 13.1695 16.0523C13.6263 16.2497 13.9829 16.3674 14.261 16.4557C14.7198 16.6014 15.137 16.5808 15.467 16.5316C15.8349 16.4765 16.5998 16.0683 16.7595 15.6211C16.919 15.1738 16.919 14.7905 16.871 14.7106C16.8233 14.6307 16.6956 14.5829 16.5041 14.487Z" fill="white"/>
</svg>
