<svg width="16" height="16" viewBox="0 0 16 16" fill="none" xmlns="http://www.w3.org/2000/svg">
<path d="M10.3866 8.00004C10.3866 9.32004 9.31995 10.3867 7.99995 10.3867C6.67995 10.3867 5.61328 9.32004 5.61328 8.00004C5.61328 6.68004 6.67995 5.61337 7.99995 5.61337C9.31995 5.61337 10.3866 6.68004 10.3866 8.00004Z" stroke="white" stroke-linecap="round" stroke-linejoin="round"/>
<path d="M7.9999 13.5133C10.3532 13.5133 12.5466 12.1267 14.0732 9.72668C14.6732 8.78668 14.6732 7.20668 14.0732 6.26668C12.5466 3.86668 10.3532 2.48001 7.9999 2.48001C5.64656 2.48001 3.45323 3.86668 1.92656 6.26668C1.32656 7.20668 1.32656 8.78668 1.92656 9.72668C3.45323 12.1267 5.64656 13.5133 7.9999 13.5133Z" stroke="white" stroke-linecap="round" stroke-linejoin="round"/>
</svg>
